<svg width="54" height="55" viewBox="0 0 54 55" fill="none" xmlns="http://www.w3.org/2000/svg">
<g filter="url(#filter0_d_424_68)">
<path d="M4 4C4 1.79086 5.79086 0 8 0H46C48.2091 0 50 1.79086 50 4V42C50 44.2091 48.2091 46 46 46H8C5.79086 46 4 44.2091 4 42V4Z" fill="url(#paint0_linear_424_68)"/>
</g>
<path d="M10 9.5C10 7.567 11.567 6 13.5 6H40.5C42.433 6 44 7.567 44 9.5C44 11.433 42.433 13 40.5 13H13.5C11.567 13 10 11.433 10 9.5Z" fill="white"/>
<path d="M10 22.5C10 20.567 11.567 19 13.5 19H40.5C42.433 19 44 20.567 44 22.5C44 24.433 42.433 26 40.5 26H13.5C11.567 26 10 24.433 10 22.5Z" fill="white"/>
<path d="M10 35.5C10 33.567 11.567 32 13.5 32H40.5C42.433 32 44 33.567 44 35.5C44 37.433 42.433 39 40.5 39H13.5C11.567 39 10 37.433 10 35.5Z" fill="#FFFDFD"/>
<defs>
<filter id="filter0_d_424_68" x="0" y="0" width="54" height="55" filterUnits="userSpaceOnUse" color-interpolation-filters="sRGB">
<feFlood flood-opacity="0" result="BackgroundImageFix"/>
<feColorMatrix in="SourceAlpha" type="matrix" values="0 0 0 0 0 0 0 0 0 0 0 0 0 0 0 0 0 0 127 0" result="hardAlpha"/>
<feOffset dy="5"/>
<feGaussianBlur stdDeviation="2"/>
<feComposite in2="hardAlpha" operator="out"/>
<feColorMatrix type="matrix" values="0 0 0 0 0 0 0 0 0 0 0 0 0 0 0 0 0 0 0.25 0"/>
<feBlend mode="normal" in2="BackgroundImageFix" result="effect1_dropShadow_424_68"/>
<feBlend mode="normal" in="SourceGraphic" in2="effect1_dropShadow_424_68" result="shape"/>
</filter>
<linearGradient id="paint0_linear_424_68" x1="26.606" y1="-4.10758e-08" x2="27.394" y2="46" gradientUnits="userSpaceOnUse">
<stop stop-color="#2D3A8B"/>
<stop offset="1" stop-color="#30365B"/>
</linearGradient>
</defs>
</svg>
